<?xml version="1.0" standalone="no"?><!DOCTYPE svg PUBLIC "-//W3C//DTD SVG 1.1//EN" "http://www.w3.org/Graphics/SVG/1.1/DTD/svg11.dtd"><svg t="1611644347134" class="icon" viewBox="0 0 1024 1024" version="1.1" xmlns="http://www.w3.org/2000/svg" p-id="2566" xmlns:xlink="http://www.w3.org/1999/xlink" width="200" height="200"><defs><style type="text/css"></style></defs><path d="M911.918055 499.723645a302.948764 302.948764 0 0 1-166.71012 49.726195c-168.187135 0-304.532809-136.334971-304.532809-304.532809 0-45.573426 10.082238-88.770784 28.031189-127.59061-202.586617 20.78525-360.616594 191.93712-360.616594 400.025085 0 222.076802 180.046073 402.122876 402.144282 402.122876 222.087505 0 402.133579-180.046073 402.133579-402.122876 0-5.908063-0.192654-11.773314-0.449527-17.627861z m-401.684052 344.840354c-180.431382 0-327.223195-146.781111-327.223195-327.20179 0-128.832159 73.807973-240.999728 183.374709-294.279323a379.657253 379.657253 0 0 0-0.631477 21.844848c0 209.233188 170.220708 379.453896 379.453895 379.453895a380.599118 380.599118 0 0 0 76.879738-7.823902c-42.116353 132.064469-165.993018 228.006271-311.85367 228.006272z" fill="#ffffff" p-id="2567"></path><path d="M801.901792 295.264001h-32.109037v-32.109037a37.460543 37.460543 0 1 0-74.921087 0v32.109037h-32.109037a37.460543 37.460543 0 1 0 0 74.921086h32.109037v32.109037a37.460543 37.460543 0 1 0 74.921087 0v-32.109037h32.109037a37.460543 37.460543 0 1 0 0-74.921086z" fill="#ffffff" p-id="2568"></path></svg>