<?xml version="1.0" standalone="no"?><!DOCTYPE svg PUBLIC "-//W3C//DTD SVG 1.1//EN" "http://www.w3.org/Graphics/SVG/1.1/DTD/svg11.dtd"><svg t="1611634438596" class="icon" viewBox="0 0 1024 1024" version="1.1" xmlns="http://www.w3.org/2000/svg" p-id="3594" xmlns:xlink="http://www.w3.org/1999/xlink" width="200" height="200"><defs><style type="text/css"></style></defs><path d="M925.866667 866.133333L768 708.266667c51.2-64 85.333333-149.333333 85.333333-238.933334 0-213.333333-170.666667-384-384-384s-384 170.666667-384 384 170.666667 384 384 384c89.6 0 174.933333-29.866667 238.933334-85.333333l157.866666 157.866667c8.533333 8.533333 21.333333 12.8 29.866667 12.8s21.333333-4.266667 29.866667-12.8c17.066667-17.066667 17.066667-42.666667 0-59.733334zM170.666667 469.333333c0-166.4 132.266667-298.666667 298.666666-298.666666s298.666667 132.266667 298.666667 298.666666c0 81.066667-34.133333 157.866667-85.333333 209.066667-55.466667 55.466667-128 85.333333-209.066667 85.333333-170.666667 4.266667-302.933333-128-302.933333-294.4z" p-id="3595" fill="#2c2c2c"></path></svg>