<?xml version="1.0" standalone="no"?><!DOCTYPE svg PUBLIC "-//W3C//DTD SVG 1.1//EN" "http://www.w3.org/Graphics/SVG/1.1/DTD/svg11.dtd"><svg t="1611644418516" class="icon" viewBox="0 0 1024 1024" version="1.1" xmlns="http://www.w3.org/2000/svg" p-id="2874" xmlns:xlink="http://www.w3.org/1999/xlink" width="200" height="200"><defs><style type="text/css"></style></defs><path d="M510.2233 272.969626c-132.010954 0-239.030374 107.01942-239.030374 239.030374s107.01942 239.030374 239.030374 239.030374 239.030374-107.01942 239.030374-239.030374-107.01942-239.030374-239.030374-239.030374z m0 403.139662c-90.483266 0-164.109288-73.615319-164.109288-164.109288 0-90.483266 73.626022-164.109288 164.109288-164.109288 90.493969 0 164.109288 73.626022 164.109288 164.109288 0 90.493969-73.615319 164.109288-164.109288 164.109288zM190.021281 512a37.460543 37.460543 0 0 1-37.460543 37.460543h-85.624099a37.460543 37.460543 0 1 1 0-74.921086h85.624099a37.460543 37.460543 0 0 1 37.460543 37.460543zM990.970504 512a37.460543 37.460543 0 0 1-37.460543 37.460543h-85.624099a37.460543 37.460543 0 0 1 0-74.921086h85.624099a37.460543 37.460543 0 0 1 37.460543 37.460543zM283.811777 285.588478a37.481949 37.481949 0 0 1-52.97991 0l-60.546941-60.546941a37.503355 37.503355 0 0 1 0-52.979911 37.492652 37.492652 0 0 1 52.979911 0l60.54694 60.546941a37.460543 37.460543 0 0 1 0 52.979911zM850.161674 851.938374a37.44984 37.44984 0 0 1-52.969208 0l-60.546941-60.536238a37.492652 37.492652 0 0 1 0-52.979911 37.481949 37.481949 0 0 1 52.979911 0l60.536238 60.546941a37.44984 37.44984 0 0 1 0 52.969208z" fill="#ffffff" p-id="2875"></path><path d="M736.634822 285.588478a37.481949 37.481949 0 0 1 0-52.979911l60.546941-60.546941a37.460543 37.460543 0 0 1 52.969208 52.979911l-60.536238 60.546941a37.460543 37.460543 0 0 1-52.979911 0zM170.274223 851.938374a37.44984 37.44984 0 0 1 0-52.969208l60.536238-60.546941a37.503355 37.503355 0 0 1 52.990613 0 37.481949 37.481949 0 0 1 0 52.979911l-60.557643 60.536238a37.44984 37.44984 0 0 1-52.969208 0z" fill="#ffffff" p-id="2876"></path><path d="M510.2233 191.797981a37.460543 37.460543 0 0 1-37.460543-37.460543v-85.624099a37.460543 37.460543 0 1 1 74.921086 0v85.624099a37.460543 37.460543 0 0 1-37.460543 37.460543zM510.2233 992.747204a37.460543 37.460543 0 0 1-37.460543-37.460543v-85.624099a37.460543 37.460543 0 1 1 74.921086 0v85.624099c0 20.699626-16.760917 37.460543-37.460543 37.460543z" fill="#ffffff" p-id="2877"></path></svg>